<?xml version="1.0" encoding="UTF-8"?>
<svg width="24px" height="24px" viewBox="0 0 24 24" version="1.1" xmlns="http://www.w3.org/2000/svg" xmlns:xlink="http://www.w3.org/1999/xlink">
    <title>Code Icon</title>
    <g id="Code-Icon" stroke="none" stroke-width="1" fill="none" fill-rule="evenodd">
        <path d="M16.4,2 C17.0627,2 17.6,2.5373 17.6,3.2 L17.6,20.8 C17.6,21.4627 17.0627,22 16.4,22 L7.6,22 C6.9373,22 6.4,21.4627 6.4,20.8 L6.4,3.2 C6.4,2.5373 6.9373,2 7.6,2 L16.4,2 Z M15.4,4 L8.6,4 L8.6,20 L15.4,20 L15.4,4 Z M12,16 C12.5523,16 13,16.4477 13,17 C13,17.5523 12.5523,18 12,18 C11.4477,18 11,17.5523 11,17 C11,16.4477 11.4477,16 12,16 Z" id="Shape" fill="#6264A7" fill-rule="nonzero"></path>
    </g>
</svg>
