<?xml version="1.0" encoding="UTF-8"?>
<svg width="24px" height="24px" viewBox="0 0 24 24" version="1.1" xmlns="http://www.w3.org/2000/svg" xmlns:xlink="http://www.w3.org/1999/xlink">
    <title>Lock Icon</title>
    <g id="Lock-Icon" stroke="none" stroke-width="1" fill="none" fill-rule="evenodd">
        <path d="M12,1 C15.866,1 19,4.13400675 19,8 L19,10 C20.1045695,10 21,10.8954305 21,12 L21,20 C21,21.1045695 20.1045695,22 19,22 L5,22 C3.8954305,22 3,21.1045695 3,20 L3,12 C3,10.8954305 3.8954305,10 5,10 L5,8 C5,4.13400675 8.13400675,1 12,1 Z M19,12 L5,12 L5,20 L19,20 L19,12 Z M12,3 C9.23857625,3 7,5.23857625 7,8 L7,10 L17,10 L17,8 C17,5.23857625 14.7614237,3 12,3 Z" id="Shape" fill="#6264A7" fill-rule="nonzero"></path>
    </g>
</svg>
