<?xml version="1.0" encoding="UTF-8"?>
<svg width="24px" height="24px" viewBox="0 0 24 24" version="1.1" xmlns="http://www.w3.org/2000/svg" xmlns:xlink="http://www.w3.org/1999/xlink">
    <title>Subject Icon</title>
    <g id="Subject-Icon" stroke="none" stroke-width="1" fill="none" fill-rule="evenodd">
        <path d="M9,2 C10.3649851,2 11.4696878,3.0694201 11.5914922,4.41477773 L11.6,4.6 L19.4,4.6 C20.8359,4.6 22,5.7641 22,7.2 L22,18.8 C22,20.2359 20.8359,21.4 19.4,21.4 L4.6,21.4 C3.1641,21.4 2,20.2359 2,18.8 L2,7.2 C2,5.7641 3.1641,4.6 4.6,4.6 L6.4,4.6 L6.40851,4.41477773 C6.53031215,3.0694201 7.63501487,2 9,2 Z M19.4,6.8 L4.6,6.8 C4.3791,6.8 4.2,6.9791 4.2,7.2 L4.2,18.8 C4.2,19.0209 4.3791,19.2 4.6,19.2 L19.4,19.2 C19.6209,19.2 19.8,19.0209 19.8,18.8 L19.8,7.2 C19.8,6.9791 19.6209,6.8 19.4,6.8 Z M9,4.2 C8.7791,4.2 8.6,4.3791 8.6,4.6 C8.6,4.8209 8.7791,5 9,5 C9.2209,5 9.4,4.8209 9.4,4.6 C9.4,4.3791 9.2209,4.2 9,4.2 Z" id="Shape" fill="#6264A7" fill-rule="nonzero"></path>
    </g>
</svg>
